<?xml version="1.0" encoding="utf-8"?>
<!-- Generator: Adobe Illustrator 21.0.0, SVG Export Plug-In . SVG Version: 6.00 Build 0)  -->
<svg version="1.1" id="Layer_1" xmlns="http://www.w3.org/2000/svg" xmlns:xlink="http://www.w3.org/1999/xlink" x="0px" y="0px"
	 viewBox="0 0 115.9 39.6" style="enable-background:new 0 0 115.9 39.6;" xml:space="preserve">
<style type="text/css">
	.st0{fill:#010101;}
</style>
<g>
	<path class="st0" d="M35.3,22.7l3.3-9.3h0.6l3.3,9.3H42l-1.1-3.1H37l-1.1,3.1H35.3z M38.9,14.1l-1.8,5h3.5L38.9,14.1L38.9,14.1z"/>
	<path class="st0" d="M45.5,22.7v-4.1l-3.2-5.1h0.7l2.8,4.6h0l2.8-4.6h0.6L46,18.6v4.2H45.5z"/>
	<path class="st0" d="M56.7,16.1c0,1.5-0.9,2.2-2,2.5l2.1,4.2h-0.6l-2.1-4.1h-2.7v4.1h-0.6v-9.3h3.1C55.6,13.4,56.7,14.5,56.7,16.1z
		 M53.8,18.2c1.4,0,2.3-0.8,2.3-2.1c0-1.3-0.9-2.1-2.3-2.1h-2.4v4.2H53.8z"/>
	<path class="st0" d="M58,22.7l3.3-9.3h0.6l3.3,9.3h-0.6l-1.1-3.1h-3.9l-1.1,3.1H58z M61.6,14.1l-1.8,5h3.5L61.6,14.1L61.6,14.1z"/>
	<path class="st0" d="M69.9,22.7v-9.3h5.2V14h-4.7v3.8h4.3v0.5h-4.3v4.4H69.9z"/>
	<path class="st0" d="M82.2,22.7H77v-9.3h0.6v8.8h4.7V22.7z"/>
	<path class="st0" d="M83.3,17.3c0-2.4,1.3-4,3.6-4s3.6,1.6,3.6,4.1v1.7c0,2.4-1.3,4-3.6,4s-3.5-1.6-3.5-4V17.3z M83.8,19
		c0,2.1,1.1,3.5,3,3.5s3-1.4,3-3.5v-1.8c0-2.1-1.2-3.5-3-3.5c-1.8,0-3,1.4-3,3.5V19z"/>
	<path class="st0" d="M98.5,16.1c0,1.5-0.9,2.2-2,2.5l2.1,4.2H98l-2.1-4.1h-2.7v4.1h-0.6v-9.3h3.1C97.4,13.4,98.5,14.5,98.5,16.1z
		 M95.6,18.2c1.4,0,2.3-0.8,2.3-2.1c0-1.3-0.9-2.1-2.3-2.1h-2.4v4.2H95.6z"/>
	<path class="st0" d="M106,22.7h-5.3v-9.3h5.3V14h-4.7v3.8h4.5v0.5h-4.5v4h4.7V22.7z"/>
	<path class="st0" d="M108.2,20.4c0,0.9,0.7,2.1,2.7,2.1c1.6,0,2.6-0.8,2.6-2c0-1.1-0.8-1.6-2.2-2l-1.2-0.3c-1.3-0.3-2.1-1-2.1-2.4
		c0-1.5,1.2-2.5,3-2.5c1.8,0,2.9,1,2.9,2.4h-0.6c0-0.9-0.7-1.8-2.4-1.8c-1.5,0-2.4,0.8-2.4,2c0,1,0.6,1.5,1.8,1.9l1.2,0.3
		c1.6,0.4,2.5,1,2.5,2.5c0,1.6-1.3,2.6-3.2,2.6c-2.4,0-3.2-1.5-3.2-2.6H108.2z"/>
</g>
<g>
	<g>
		<path class="st0" d="M9.3,4.3c-1.7,7.1-3.5,14.3-5.2,21.4c0.1-0.5,1.3-1.6,1.5-2.5c1.7-7.1,3.5-14.3,5.2-21.4
			C10.7,2.3,9.5,3.4,9.3,4.3L9.3,4.3z"/>
	</g>
	<g>
		<path class="st0" d="M9.3,4.3c3.8,11.1,7.7,22.2,11.5,33.2c-0.1-0.4,1.8-1.8,1.5-2.6c-3.8-11.1-7.7-22.2-11.5-33.2
			C10.9,2.2,9,3.6,9.3,4.3L9.3,4.3z"/>
	</g>
	<g>
		<path class="st0" d="M25.6,4.3c1.7,7.1,3.5,14.3,5.2,21.4c-0.1-0.5,1.7-1.8,1.5-2.6C30.5,16,28.8,8.9,27.1,1.7
			C27.2,2.3,25.4,3.5,25.6,4.3L25.6,4.3z"/>
	</g>
	<g>
		<path class="st0" d="M25.6,4.1C21.8,15.2,18,26.3,14.1,37.4c-0.1,0.2,1.2-1.6,1.4-2.2C19.4,24.1,23.2,13,27.1,1.9
			C27.1,1.7,25.8,3.5,25.6,4.1L25.6,4.1z"/>
	</g>
</g>
</svg>
